
<svg width="46" height="46" viewBox="0 0 38 39" fill="none" xmlns="http://www.w3.org/2000/svg">
<g clip-path="url(#clip0_5_2290)">
<path d="M23.7527 24.6215L23.7594 24.716C23.3357 24.8562 22.9187 24.9887 22.4944 25.1217C22.2823 25.1882 14.722 27.6275 14.4883 27.6956C14.2552 27.7709 14.022 27.8462 13.7888 27.9216C13.6758 27.959 13.5557 27.9969 13.4427 28.0343L13.3939 27.9575C12.9565 27.1935 12.7024 26.365 12.6394 25.4789C12.5686 24.4838 12.6222 23.6111 12.8012 22.8753C12.8576 22.6522 12.9217 22.4358 13.0013 22.2329C13.0741 22.0378 13.1686 21.8412 13.2646 21.6663C13.7522 20.7986 14.5609 20.1778 15.6548 19.8064C15.9933 19.6869 16.3554 19.5949 16.7478 19.5227C17.0759 19.4624 17.4273 19.4223 17.794 19.3957C19.1315 19.2986 20.2261 19.4456 21.0927 19.8426C21.3316 19.9494 21.5577 20.079 21.7637 20.232C22.0447 20.4233 22.2929 20.6609 22.5144 20.9295C22.6408 21.081 22.7616 21.2547 22.868 21.4295C22.9816 21.6038 23.0823 21.8009 23.1692 22.0064C23.4807 22.7284 23.6804 23.6047 23.7527 24.6215Z" fill="url(#paint0_linear_5_2290)"/>
<path d="M20.921 13.9706C21.0315 15.525 20.1116 16.9205 18.7173 17.54C18.4862 17.6443 18.2464 17.7275 17.9901 17.7826C17.8052 17.8252 17.6121 17.8538 17.4251 17.8673C17.0152 17.8971 16.6079 17.8609 16.2252 17.7646C16.2108 17.7656 16.1887 17.7599 16.1738 17.7537C14.6723 17.3735 13.5192 16.0992 13.4067 14.5157C13.2646 12.5183 14.8316 10.7693 16.9097 10.6185C17.0895 10.6055 17.2703 10.6069 17.4521 10.623C17.7059 10.6337 17.9545 10.6741 18.198 10.7441C18.854 10.9228 19.4499 11.2738 19.917 11.7437C19.9329 11.7644 19.9483 11.7779 19.9643 11.7987C20.5115 12.3795 20.8616 13.1353 20.921 13.9706Z" fill="url(#paint1_linear_5_2290)"/>
<path d="M37.2753 26.0352C37.2424 26.0814 36.5113 26.9813 36.5113 26.9813C36.4851 27.0197 36.4656 27.0504 36.4395 27.0888C36.4328 27.0965 36.4261 27.1043 36.42 27.1194C36.3871 27.1656 36.3542 27.2118 36.3142 27.2585L35.5852 28.2897C35.5 28.4127 35.4009 28.544 35.2957 28.6903C35.1448 28.9057 34.9733 29.1371 34.8029 29.3831L34.2638 30.1377L32.0081 33.2801C31.7843 33.5884 31.5326 33.7088 31.2054 33.6815C30.8926 33.6531 30.6681 33.443 30.5935 33.1053L30.2159 31.6579C30.2159 31.6579 25.6507 33.1207 20.6835 34.7222L20.1252 34.9014C19.5736 35.0729 19.0154 35.2521 18.4571 35.4313L17.906 35.61L17.7366 35.6661L17.6657 35.6858C17.6092 35.7045 17.5244 35.7326 17.4325 35.7612L16.959 35.9123L16.6832 35.998L16.4855 36.0635L16.4351 36.0671L16.3864 36.0926L14.2242 36.7897L10.9378 37.8385C9.78641 38.2141 8.92463 38.4956 8.50761 38.6281L8.46446 38.6312L7.46948 38.4624L7.3996 38.3945L7.39753 38.3655L6.18859 33.4594L6.18704 33.4376L6.21628 33.3406C6.29121 33.1745 6.3831 33.0437 6.49915 32.9477L6.48012 32.8834C6.48012 32.8834 6.46931 32.8331 6.46776 32.8113L6.45898 32.6878C6.44456 32.5866 6.45942 32.4906 6.51127 32.4066C6.53129 32.3832 6.54412 32.3604 6.56415 32.337C6.63808 32.2586 6.70534 32.1881 6.78853 32.1382C6.7952 32.1304 6.94363 32.0832 7.20504 31.9985C7.40276 31.933 7.67855 31.8473 8.01084 31.7429C8.1454 31.7039 8.26557 31.666 8.36418 31.6297C8.45611 31.6011 8.53366 31.5736 8.56909 31.5637C13.7285 29.9191 28.3407 25.3108 28.6165 25.2251L28.6237 25.2246L29.0967 25.0661C29.2169 25.0282 29.3119 24.941 29.3627 24.8424C29.4063 24.7444 29.4207 24.6411 29.3914 24.5337C29.3785 24.4543 29.3589 24.3827 29.3389 24.3039C29.2617 24.0321 29.2 23.7737 29.1228 23.5019C29.1131 23.4661 29.1033 23.4303 29.1007 23.394C29.0904 23.3509 29.0878 23.3146 29.0847 23.271C29.0837 23.2565 29.0827 23.242 29.0883 23.2196L29.0862 23.1906C29.0774 22.9649 29.1575 22.7693 29.3326 22.5887L29.3593 22.5575L29.5082 22.5175L29.8122 22.4224L29.8569 22.4411C30.4497 22.6463 32.4127 23.4165 34.1007 24.0826C34.4583 24.2318 34.8076 24.3671 35.12 24.4905L34.2152 11.765L34.2223 11.7645C34.1661 10.9728 33.6604 10.2648 32.9067 9.93255L18.5789 3.49591C17.8401 3.16985 16.9772 3.23245 16.2994 3.66127L3.0292 12.1C2.78015 12.2568 2.57733 12.454 2.41254 12.6777L2.29395 12.8396L2.25109 12.2368C2.1979 11.4886 2.60289 10.7803 3.29562 10.3577L17.2526 2.02244C17.9243 1.60867 18.7872 1.54607 19.5177 1.85812L34.4891 8.09476C35.2417 8.41251 35.736 9.06292 35.7887 9.80378C35.7887 9.80378 36.8706 24.8161 36.8773 25.115C36.8193 25.1119 36.8866 25.1435 37.256 25.3576C37.5422 25.5194 37.4344 25.8338 37.2753 26.0352Z" fill="url(#paint2_linear_5_2290)"/>
<path d="M32.4596 10.7608L18.141 4.35272C17.9314 4.25112 17.7126 4.22318 17.4825 4.23988C17.2524 4.25657 17.0326 4.31632 16.8395 4.44714L3.57594 12.8781C3.1677 13.134 2.93879 13.5741 2.97184 14.039L4.02278 28.8199C4.05635 29.292 4.34517 29.6945 4.78543 29.8889L8.56903 31.5638C13.7284 29.9191 28.3407 25.3109 28.6165 25.2252C28.5439 24.9165 28.4529 24.5507 28.4158 24.4366C28.3083 24.0429 28.3776 23.6947 28.6533 23.4046L28.6928 23.3506L29.0882 23.2197L29.0862 23.1907C29.0774 22.965 29.1574 22.7693 29.3325 22.5887L29.3592 22.5576L29.5081 22.5176L29.8122 22.4225L29.8569 22.4412C30.4497 22.6464 32.4126 23.4166 34.1007 24.0826L33.23 11.8366C33.1969 11.3717 32.9009 10.9697 32.4601 10.7681L32.4596 10.7608ZM27.728 12.2211C29.5473 12.0891 31.1287 13.3908 31.2527 15.134C31.3766 16.8772 30.0038 18.4077 28.1773 18.5402C26.3509 18.6727 24.7689 17.3638 24.6444 15.6134C24.5199 13.8629 25.9088 12.3531 27.728 12.2211ZM16.9096 10.6186C17.0894 10.6055 17.2702 10.607 17.4521 10.623C17.658 10.5716 17.8722 10.5341 18.0951 10.518L18.1814 10.5117C20.3283 10.4144 22.1262 12.0142 22.2806 14.186C22.435 16.3577 20.8054 18.2427 18.6554 18.3987C17.7853 18.4618 16.946 18.2453 16.2251 17.7646C16.2108 17.7657 16.1887 17.76 16.1738 17.7538C14.6723 17.3735 13.5192 16.0992 13.4066 14.5158C13.2646 12.5184 14.8315 10.7693 16.9096 10.6186ZM11.7929 22.8244C11.7554 22.9074 11.7179 22.9905 11.681 23.0808C11.6374 23.1788 11.6009 23.2764 11.565 23.3812L11.5286 23.4788L11.4325 23.4492C10.8644 23.286 10.1884 23.2328 9.42618 23.2881C9.26799 23.2996 9.12469 23.3173 8.98858 23.3345C8.53712 23.3891 8.11751 23.4853 7.75082 23.6141L7.70871 23.6318C6.89882 23.9314 6.31037 24.3976 5.93207 25.0748L5.75139 25.3799L5.65637 24.0435L5.68974 24.0045C6.17081 23.4513 6.8353 23.038 7.64058 22.7752C8.14953 22.6142 8.73453 22.506 9.36731 22.4601C10.2518 22.3959 11.0372 22.4631 11.724 22.6688L11.8421 22.704L11.7929 22.8244ZM8.61753 21.4705C6.79108 21.603 5.20909 20.2941 5.08463 18.5436C4.96017 16.7931 6.34846 15.2761 8.16772 15.1441C9.98698 15.0121 11.5613 16.3143 11.6857 18.0647C11.8102 19.8152 10.4368 21.3385 8.61753 21.4705ZM25.3735 24.2412L24.5389 24.4988L24.5091 24.3842C24.4189 23.6241 24.2492 22.9648 23.9926 22.4066C23.9068 22.2157 23.8137 22.0254 23.7002 21.8511C23.6015 21.683 23.4889 21.5233 23.3553 21.3723C22.9211 20.8563 22.4027 20.4777 21.7636 20.2321C22.0447 20.4234 22.2929 20.6609 22.5143 20.9296C22.6407 21.081 22.7615 21.2548 22.8679 21.4296C22.9815 21.6039 23.0822 21.801 23.1691 22.0064C23.4807 22.7285 23.6803 23.6047 23.7526 24.6216L23.7593 24.716C23.3356 24.8563 22.9186 24.9887 22.4944 25.1217C22.2823 25.1882 14.7219 27.6276 14.4882 27.6957C14.2551 27.771 14.0219 27.8463 13.7888 27.9216C13.6758 27.959 13.5556 27.9969 13.4426 28.0343L13.3938 27.9576C12.9564 27.1935 12.7023 26.365 12.6393 25.4789C12.5686 24.4838 12.6222 23.6111 12.8011 22.8754C12.8576 22.6523 12.9217 22.4359 13.0012 22.233C13.0741 22.0379 13.1685 21.8412 13.2645 21.6663C13.7521 20.7987 14.5609 20.1778 15.6548 19.8064C15.912 19.6637 16.1858 19.5489 16.4821 19.4471C17.1456 19.2237 17.9011 19.074 18.7496 19.0125C20.6049 18.8779 22.1187 19.228 23.2321 20.0452C23.5521 20.2775 23.8471 20.5628 24.1086 20.8869C24.2197 21.0249 24.3245 21.1779 24.4221 21.3315C24.527 21.4845 24.618 21.6458 24.694 21.8009C25.0307 22.47 25.2524 23.2497 25.3673 24.154L25.3735 24.2412ZM32.006 21.358L31.8041 21.161C31.4167 20.7948 30.9214 20.5387 30.3184 20.3927C29.7528 20.2658 29.0778 20.2271 28.3084 20.2829C27.539 20.3388 26.9402 20.4552 26.405 20.6546L26.3208 20.69L26.2792 20.6127C26.2216 20.5146 26.1574 20.4244 26.1003 20.3336C26.0443 20.2574 25.9888 20.1884 25.9328 20.1121L25.8382 20.0022L25.9784 19.9409C26.6189 19.6973 27.3805 19.5326 28.2506 19.4694C29.7463 19.3609 30.9693 19.5861 31.8849 20.1622L31.9229 20.1886L32.006 21.358Z" fill="white"/>
<path d="M20.1251 34.9015L18.457 35.4314L17.906 35.6101L17.7365 35.6661L19.1256 36.2955C19.5433 36.4769 20.0394 36.4409 20.4271 36.201L24.7761 33.4252L20.6834 34.7223L20.1251 34.9015Z" fill="white"/>
<path d="M28.1169 17.6904C29.44 17.5944 30.4519 16.477 30.3616 15.2059C30.2712 13.9348 29.1198 12.989 27.7895 13.0855C26.4592 13.182 25.4539 14.2916 25.5438 15.5554C25.6336 16.8193 26.7866 17.7869 28.1169 17.6904Z" fill="white"/>
<path d="M21.4537 14.246C21.3803 13.2146 20.8324 12.3198 19.9647 11.806C20.512 12.3869 20.862 13.1427 20.9214 13.9779C21.0319 15.5323 20.112 16.9278 18.7178 17.5473C20.3598 17.3625 21.5714 15.902 21.4537 14.246Z" fill="white"/>
<path d="M8.22814 15.9939C6.89785 16.0904 5.8859 17.2078 5.97576 18.4717C6.06562 19.7355 7.22527 20.6954 8.55556 20.5989C9.88585 20.5024 10.8834 19.386 10.7936 18.1222C10.7037 16.8583 9.55843 15.8974 8.22814 15.9939Z" fill="white"/>
<path d="M27.6191 32.2406L20.2399 36.9228C19.901 37.1372 19.5194 37.2598 19.1239 37.2885C18.7284 37.3172 18.3334 37.251 17.9748 37.0872L15.6605 36.0504L15.7093 36.025L15.7596 36.0213L15.9568 35.9486L16.2326 35.8629L16.7061 35.7117C16.8053 35.6826 16.8828 35.6551 16.9393 35.6364L17.0102 35.6167L18.3993 36.246C18.817 36.4274 19.3131 36.3914 19.7008 36.1516L24.0498 33.3757L27.6191 32.2406Z" fill="#17255F"/>
<path d="M33.496 11.7151L33.4888 11.7156L34.3946 24.4556C34.2092 24.3887 34.0237 24.3219 33.8449 24.2472C33.8306 24.2483 33.8074 24.228 33.7853 24.2223C33.7031 24.1845 33.6215 24.1539 33.5475 24.1301C33.4802 24.0985 33.4283 24.0803 33.3759 24.0549L32.5037 11.7871C32.4706 11.3222 32.1746 10.9203 31.7338 10.7186L17.4147 4.30324C17.2051 4.20163 16.9863 4.1737 16.7562 4.19039C16.5261 4.20708 16.3062 4.26683 16.1132 4.39765L2.84964 12.8286C2.44139 13.0846 2.21248 13.5246 2.24553 13.9895L3.29647 28.7704C3.33004 29.2425 3.61886 29.645 4.05912 29.8394L7.84272 31.5143C7.80728 31.5241 7.72973 31.5517 7.6378 31.5802C7.24954 31.7106 6.50075 31.9548 6.49356 31.9553L6.47918 31.9563L3.62851 30.6957C2.87436 30.3561 2.36147 29.6486 2.30467 28.8497L1.25269 14.0542C1.22119 13.6111 1.33402 13.1649 1.56758 12.7902L1.68617 12.6283C1.85096 12.4046 2.05377 12.2074 2.30282 12.0506L15.573 3.61184C16.2509 3.18303 17.1138 3.12043 17.8525 3.44648L32.1804 9.88312C32.934 10.2154 33.4397 10.9234 33.496 11.7151Z" fill="#17255F"/>
<path d="M11.1158 22.6545L11.0665 22.7749C11.0291 22.8579 10.9916 22.941 10.9547 23.0313C10.9111 23.1293 10.8746 23.2269 10.8387 23.3317L10.8023 23.4293L10.7062 23.3997C10.1381 23.2365 9.4621 23.1834 8.69988 23.2386C8.54168 23.2501 8.39838 23.2678 8.26228 23.285C7.81081 23.3396 7.3912 23.4358 7.02451 23.5646L6.9824 23.5823C6.17251 23.8819 5.58406 24.3481 5.20577 25.0253L5.02508 25.3304L4.93006 23.994L4.96343 23.9551C5.4445 23.4018 6.10899 22.9886 6.91427 22.7257C7.42323 22.5647 8.00822 22.4565 8.641 22.4106C9.52546 22.3465 10.3108 22.4136 10.9977 22.6193L11.1158 22.6545Z" fill="#17255F"/>
<path d="M24.641 24.1045L24.6472 24.1917L23.8126 24.4494L23.7828 24.3347C23.6926 23.5747 23.5229 22.9153 23.2663 22.3571C23.1805 22.1662 23.0874 21.9759 22.9739 21.8016C22.8752 21.6335 22.7626 21.4738 22.629 21.3229C22.1948 20.8068 21.6764 20.4283 21.0373 20.1826C20.7548 20.0717 20.4378 19.9851 20.1014 19.9292C19.5158 19.8257 18.8347 19.8021 18.0869 19.8564C15.9081 20.0144 14.4768 20.7242 13.7249 22.0418C13.6207 22.2027 13.5329 22.3916 13.4528 22.5872C13.38 22.7823 13.3081 22.9919 13.2579 23.2C13.0892 23.8766 13.0371 24.6689 13.1001 25.555C13.1497 26.2523 13.3261 26.9039 13.6376 27.5238L13.6962 27.6363L12.8411 27.9101L12.7984 27.8183C12.4674 27.1268 12.2781 26.3959 12.2228 25.6187C12.1428 24.4929 12.2379 23.493 12.5093 22.6338C12.5621 22.462 12.6294 22.2892 12.6904 22.1315C12.7648 21.9581 12.847 21.7916 12.9373 21.639C13.3931 20.832 14.0565 20.1998 14.9285 19.7569C15.1857 19.6142 15.4595 19.4994 15.7558 19.3976C16.4193 19.1742 17.1748 19.0245 18.0233 18.963C19.8786 18.8284 21.3924 19.1785 22.5058 19.9957C22.8258 20.2281 23.1208 20.5133 23.3823 20.8375C23.4933 20.9754 23.5982 21.1284 23.6958 21.282C23.8007 21.435 23.8917 21.5963 23.9677 21.7514C24.3044 22.4205 24.5261 23.2003 24.641 24.1045Z" fill="#17255F"/>
<path d="M27.0022 12.1789C25.183 12.3109 23.7947 13.8279 23.9186 15.5712C24.0426 17.3144 25.6251 18.6305 27.4515 18.498C29.278 18.3655 30.6514 16.8422 30.5269 15.0918C30.4024 13.3413 28.8215 12.0469 27.0022 12.1789ZM27.3906 17.6409C26.0603 17.7375 24.9078 16.777 24.8175 15.5059C24.7271 14.2349 25.7329 13.1325 27.0632 13.036C28.3934 12.9395 29.5454 13.8926 29.6352 15.1564C29.7251 16.4203 28.7137 17.545 27.3906 17.6409Z" fill="#17255F"/>
<path d="M7.44141 15.0946C5.62215 15.2266 4.23386 16.7437 4.35832 18.4941C4.48278 20.2446 6.06478 21.5535 7.89122 21.421C9.71767 21.2885 11.0839 19.7657 10.9594 18.0152C10.835 16.2648 9.25348 14.9631 7.44141 15.0946ZM7.82977 20.5567C6.49948 20.6532 5.33983 19.6933 5.24997 18.4294C5.16011 17.1656 6.17206 16.0482 7.50235 15.9517C8.83264 15.8552 9.97791 16.8161 10.0678 18.0799C10.1576 19.3438 9.15287 20.4607 7.82977 20.5567Z" fill="#17255F"/>
<path d="M31.1966 20.1392L31.2797 21.3086L31.0778 21.1115C30.6904 20.7453 30.1951 20.4892 29.592 20.3432C29.0265 20.2163 28.3515 20.1776 27.5821 20.2334C26.8127 20.2893 26.2139 20.4057 25.6787 20.6052L25.5945 20.6405L25.5529 20.5632C25.4953 20.4651 25.4311 20.3749 25.374 20.2841C25.318 20.2079 25.2625 20.1389 25.2065 20.0626L25.1119 19.9527L25.2521 19.8914C25.8926 19.6478 26.6542 19.4831 27.5243 19.4199C29.02 19.3114 30.243 19.5367 31.1586 20.1127L31.1966 20.1392Z" fill="#17255F"/>
<path d="M17.4556 10.4695L17.4628 10.469L17.3688 10.4685C17.1459 10.4846 16.9317 10.5221 16.7257 10.5735C14.8922 11.0132 13.5913 12.7429 13.7303 14.6968C13.816 15.9025 14.4343 16.9747 15.4156 17.6628C15.4459 17.6825 15.469 17.7027 15.4988 17.7151C16.2197 18.1958 17.059 18.4123 17.9291 18.3492C20.0791 18.1933 21.7082 16.301 21.5543 14.1365C21.4004 11.972 19.602 10.3649 17.4556 10.4695ZM17.9909 17.4905C17.9483 17.5009 17.9123 17.5035 17.8692 17.5067L17.862 17.5072C17.6607 17.5218 17.465 17.5141 17.2754 17.4913C15.811 17.3275 14.6631 16.1258 14.5572 14.6368C14.4358 12.9299 15.7173 11.4352 17.4287 11.311C18.0111 11.2688 18.5983 11.3941 19.1017 11.6642C19.147 11.6901 19.1922 11.7161 19.2379 11.7492C20.1056 12.2631 20.6535 13.1578 20.7268 14.1892C20.8446 15.8453 19.633 17.3057 17.9909 17.4905Z" fill="#17255F"/>
<path d="M16.9142 15.8676C16.7664 16.0243 16.788 16.2272 16.9869 16.3807C17.3085 16.6348 17.6907 16.7238 18.116 16.7076C18.5469 16.669 18.9043 16.5117 19.1795 16.2143C19.3474 16.0342 19.3329 15.8308 19.1428 15.6986C18.9676 15.5726 18.7514 15.581 18.5599 15.7336C18.1419 16.0559 17.9406 16.0705 17.5028 15.8103C17.284 15.6801 17.0544 15.7041 16.8999 15.8686L16.9142 15.8676Z" fill="#17255F"/>
<path d="M35.3768 25.9686C34.0293 25.4166 29.3883 23.4754 28.5201 23.1587L28.4534 23.1344L28.3614 23.163L27.966 23.2939L27.9264 23.3478C27.6507 23.638 27.5815 23.9861 27.689 24.3799C27.7261 24.494 27.8171 24.8597 27.8896 25.1684C27.9673 25.4475 28.0208 25.6918 28.0208 25.6918C28.0208 25.6918 5.9376 32.7768 5.77432 32.9201C5.65879 33.0234 5.56639 33.1469 5.49146 33.3129L5.4617 33.4027L6.6799 38.3373L6.68248 38.3736L6.75184 38.4343C6.962 38.6454 7.18905 38.6873 7.41196 38.6711L7.74424 38.5667L10.2181 37.7813L15.6672 36.0426L15.716 36.0172L15.7663 36.0135L15.9635 35.9408L16.2393 35.8551L16.7128 35.7039C16.8047 35.6754 16.8895 35.6473 16.946 35.6286L17.0169 35.6089L17.1863 35.5528L17.7374 35.3741L19.4055 34.8442L19.9637 34.665L24.0564 33.3679L29.4983 31.6298L29.8758 33.0771C29.9505 33.4149 30.175 33.6249 30.4878 33.6533C30.8155 33.6879 31.0667 33.5602 31.291 33.2592C31.291 33.2592 32.4471 31.6276 33.5441 30.0805L34.0832 29.3259C34.2536 29.0799 34.4251 28.8485 34.576 28.6331C34.6812 28.4867 34.7803 28.3554 34.8655 28.2324C35.1356 27.8624 35.3327 27.5853 35.4251 27.4618C35.4518 27.4306 35.5914 27.2599 35.7003 27.0622C35.7064 27.0471 35.7131 27.0393 35.7198 27.0315C35.7829 26.9029 35.8383 26.7674 35.8378 26.6579C35.8453 26.3581 35.6665 26.079 35.3839 25.9681L35.3768 25.9686ZM34.5251 27.1036C34.5251 27.1036 34.4927 27.1571 34.4732 27.1877C34.4003 27.2806 34.3202 27.374 34.2484 27.4814C34.0836 27.7051 33.9188 27.9288 33.7607 28.1447C33.6888 28.2521 33.6169 28.3595 33.545 28.467C33.3223 28.7898 33.1061 29.1048 32.8972 29.4193L32.8243 29.5122C32.2817 30.3181 31.7257 31.1396 31.085 31.9892L30.7673 32.3992L30.3825 30.8501C30.3506 30.7064 30.3151 30.6141 30.2899 30.5648L30.2889 30.5503L30.258 30.5233L30.2077 30.527C30.2077 30.527 30.1563 30.5161 30.1276 30.5182C30.0485 30.5239 29.935 30.5541 29.7932 30.5935C29.7788 30.5946 29.765 30.6029 29.7506 30.6039L27.5535 31.3182C27.5535 31.3182 27.4755 31.3385 27.4328 31.3488C27.3055 31.3873 27.1714 31.4335 27.0374 31.4797C26.5639 31.6309 26.0981 31.7888 25.6451 31.9239L25.6091 31.9265C25.3487 32.0257 25.094 32.1026 24.8254 32.1878C23.6878 32.555 22.5503 32.9223 21.4122 33.2823L15.7942 35.0843L15.6386 35.1321L15.4758 35.1804L14.7408 35.4162L14.5852 35.464L14.4378 35.5258L8.23231 37.5019C8.11213 37.5398 7.99195 37.5777 7.85072 37.6245L7.61807 37.7071L6.56915 33.5268L8.56902 32.8852L8.72463 32.8375L8.88744 32.7891L9.62236 32.5533L9.77694 32.491L9.93256 32.4432L28.5117 26.4958C28.8794 26.3816 29.0612 26.2954 29.1444 26.2455L29.1998 26.2123L29.1952 26.1469C29.1957 26.052 29.1529 25.8579 29.0979 25.694L29.0953 25.6577C29.0753 25.5789 29.0552 25.5 29.0346 25.4139L28.745 24.2887L29.2048 24.4524C29.605 24.5913 29.999 24.7453 30.3941 24.9137C30.9001 25.1179 31.3922 25.3305 31.8772 25.5435L32.3092 25.7239C32.5779 25.8431 32.8389 25.9556 33.1142 26.067C33.2488 26.1303 33.3896 26.1785 33.5385 26.2407C33.5761 26.2599 33.6064 26.2796 33.6433 26.2915C33.6809 26.3107 33.725 26.3221 33.7615 26.3267C33.799 26.3459 33.8437 26.3646 33.8889 26.3905L34.1483 26.4812C34.2074 26.4988 34.2742 26.5231 34.3338 26.548C34.3641 26.5677 34.3862 26.5734 34.416 26.5859L34.4375 26.5843L34.549 26.6273L34.8167 26.732L34.5323 27.1031L34.5251 27.1036Z" fill="#17255F"/>
</g>
<defs>
<linearGradient id="paint0_linear_5_2290" x1="2.8681" y1="20.9147" x2="36.9266" y2="18.4931" gradientUnits="userSpaceOnUse">
<stop stop-color="#00AAFF"/>
<stop offset="1" stop-color="#23D2B5"/>
</linearGradient>
<linearGradient id="paint1_linear_5_2290" x1="2.8681" y1="20.9147" x2="36.9266" y2="18.4931" gradientUnits="userSpaceOnUse">
<stop stop-color="#00AAFF"/>
<stop offset="1" stop-color="#23D2B5"/>
</linearGradient>
<linearGradient id="paint2_linear_5_2290" x1="2.8681" y1="20.9147" x2="36.9266" y2="18.4931" gradientUnits="userSpaceOnUse">
<stop stop-color="#00AAFF"/>
<stop offset="1" stop-color="#23D2B5"/>
</linearGradient>
<clipPath id="clip0_5_2290">
<rect width="36.0865" height="36.3706" fill="white" transform="matrix(0.996321 -0.0722781 0.0709961 0.998522 0.464111 2.96303)"/>
</clipPath>
</defs>
</svg>
